# xmcd
#
# Track frame offsets: 
#        150
#        14041
#        27560
#        47731
#        62440
#        74814
#        91723
#        110924
#        121038
#        132568
#        153036
#        167252
#        181216
#        191929
#        207198
#
# Disc length: 3019 seconds
#
# Revision: 2
# Processed by: cddbd v1.5.2PL0 Copyright (c) Steve Scherf et al.
# Submitted via: ExactAudioCopy v1.0b4
#
DISCID=d20bc90f
DTITLE=Erin Jaimes With John McVey and The Stumble - You Had to Go
DYEAR=2003
DGENRE=Texas Blues, Electric Blues
TTITLE0=You Had to Go
TTITLE1=Ocean of Tears
TTITLE2=Walkin' Blues
TTITLE3=Don't Mess with the Messer
TTITLE4=Warm and Tender Love
TTITLE5=Watch Yourself
TTITLE6=Funny Stuff
TTITLE7=Never Have a Man Like You
TTITLE8=High Cost of Love
TTITLE9=Please Don't Dog Me
TTITLE10=Drink Muddy Water
TTITLE11=Checkin' On My Baby
TTITLE12=Fussin' and Fightin'
TTITLE13=Blowtop Blues
TTITLE14=You Had to Go [a Slight Return]
EXTD=
EXTT0=
EXTT1=
EXTT2=
EXTT3=
EXTT4=
EXTT5=
EXTT6=
EXTT7=
EXTT8=
EXTT9=
EXTT10=
EXTT11=
EXTT12=
EXTT13=
EXTT14=
PLAYORDER=
